<?xml version="1.0" encoding="UTF-8"?>
<svg width="600px" height="600px" viewBox="0 0 600 600" version="1.1" xmlns="http://www.w3.org/2000/svg" xmlns:xlink="http://www.w3.org/1999/xlink">
    <title>morgana</title>
    <g id="morgana" stroke="none" stroke-width="1" fill="none" fill-rule="evenodd">
        <path d="M522.973842,412.758896 C522.328491,414.049597 521.611434,415.340299 520.966083,416.631001 L503.03967,407.380972 C503.756727,406.09027 504.402078,404.799568 505.047429,403.580572 C520.966083,372.101791 529.92929,336.535787 529.785879,298.962025 C529.570762,244.394024 510.281941,194.343478 478.229515,154.977075 L448.256552,179.787231 C447.396084,178.63994 446.46391,177.564356 445.531737,176.488771 C413.192488,138.413069 366.225285,113.17268 313.306514,109.515692 L310.438288,158.490652 C309.004175,158.347241 307.498356,158.275535 306.135949,158.275535 C303.841368,158.132124 301.690198,158.132124 299.395617,158.132124 C221.093045,158.418946 157.84866,222.093566 158.135482,300.467844 C158.422305,378.770416 222.096924,442.014802 300.471202,441.727979 C347.223288,441.584568 388.597449,418.710465 414.339778,383.789812 C415.200246,382.642522 416.060714,381.423525 416.849476,380.276235 L456.789524,408.671673 L488.555128,431.187248 L505.047429,442.87527 C504.258666,444.02256 503.398199,445.241556 502.537731,446.388847 C457.291464,508.84447 383.79317,549.716692 300.901436,550.006873 C163.083172,550.505454 50.5052979,438.788047 50,300.898078 C49.5014187,163.079814 161.218825,50.5019396 299.108795,50 C303.626251,50 308.143707,50.0717057 312.589457,50.3585283 C314.02357,50.4302339 315.457684,50.5019396 316.963502,50.5736452 C386.661396,55.2345126 448.686786,88.6493467 491.136532,138.915009 C492.068705,140.062299 493.000879,141.137884 493.861347,142.213469 C528.781999,184.734921 549.863461,239.302922 550.081664,298.746908 C550.22199,339.762541 540.470021,378.483594 522.973842,412.758896 Z" id="Path" fill="#FF9933" fill-rule="nonzero" transform="translate(300.040832, 300.003436) rotate(-15.000000) translate(-300.040832, -300.003436) "></path>
    </g>
</svg>